<?xml version="1.0" ?><svg viewBox="0 0 512 512" xmlns="http://www.w3.org/2000/svg"><g id="E-learning_evaluate"><path d="M465.3366,95.7468h-.82v-35.37a17.0594,17.0594,0,0,0-14.86-16.88c-3.24-.42-7.1537-.8662-11.56-1.263v-3.367a11.6882,11.6882,0,0,0-9.75-11.56,200.521,200.521,0,0,0-34.68-2.73v-3.63a10.87,10.87,0,0,0-10.86-10.86h-18.23a27.8515,27.8515,0,0,0-27.82,27.82v.91a59.031,59.031,0,0,0-14.16,12.72,6.8837,6.8837,0,0,1-10.84,0c-27.49-34.43-87.89-27.25-105.75-24.23a11.6882,11.6882,0,0,0-9.75,11.56v3.366c-4.4048.4-8.3183.8464-11.56,1.264a17.0677,17.0677,0,0,0-14.86,16.88v35.37H46.6666a31.56,31.56,0,0,0-31.53,31.53V343.974c0,.0107-.0032.0208-.0032.0315s.0031.0207.0032.0315v41.21a31.56,31.56,0,0,0,31.53,31.53H218.1882l-10.2841,75.1363h-24.383a5,5,0,0,0,0,10H330.3956a5,5,0,0,0,0-10H306.013L295.73,416.7769H465.3366a31.5667,31.5667,0,0,0,31.53-31.53v-257.97A31.5666,31.5666,0,0,0,465.3366,95.7468ZM217.9972,491.9132,228.2809,416.78h57.3559L295.92,491.9132ZM465.3366,105.7468a21.5566,21.5566,0,0,1,21.53,21.53v11.92h-22.35v-33.45Zm-259.08-66.88a1.7112,1.7112,0,0,1,1.42-1.7c16.49-2.79,72.19-9.55,96.26,20.61A16.92,16.92,0,0,0,312.1753,63.4V173.3338a5.1451,5.1451,0,0,0,4.51,5.1913,5.0009,5.0009,0,0,0,5.49-4.9766V63.399a16.9319,16.9319,0,0,0,8.2413-5.6221,47.8826,47.8826,0,0,1,6.34-6.54v25.82a8.7934,8.7934,0,0,0,16.11,4.87l4.17-6.29,4.18,6.29a8.7344,8.7344,0,0,0,7.29,3.93,8.86,8.86,0,0,0,2.57-.39,8.7214,8.7214,0,0,0,6.24-8.41v-19.57a4.9972,4.9972,0,0,0-5.472-4.9784,5.1386,5.1386,0,0,0-4.528,5.1856V73.0469l-6.11-9.21a5.0045,5.0045,0,0,0-8.33,0l-6.12,9.21v-35.14c0-.5545.0333-1.1011.0831-1.6429q.0159-.1756.0355-.35a17.8346,17.8346,0,0,1,17.7014-15.8268h18.23a.86.86,0,0,1,.86.86v4.04q-2.955.21-5.94.54c-2.16.2407-4.3333.5365-6.5053.89a4.1641,4.1641,0,0,0-3.4947,4.1075V40.28a5.1386,5.1386,0,0,0,4.528,5.1856,4.9972,4.9972,0,0,0,5.472-4.9785v-4.99q2.985-.36,5.94-.57c1.3828-.1021,11.05-.42,11.57-.42a194.0828,194.0828,0,0,1,31.44,2.66,1.7112,1.7112,0,0,1,1.42,1.7v141.3a1.6747,1.6747,0,0,1-.56,1.26,1.7044,1.7044,0,0,1-1.33.45c-59.2849-5.2943-90.4778,12.7637-104.0313,24.3283v-12.586a5.145,5.145,0,0,0-4.51-5.1913,5.001,5.001,0,0,0-5.49,4.9766v12.7974c-11.8918-10.1439-37.3465-25.2749-83.4187-25.2749-6.46,0-13.32.3-20.61.95a1.7327,1.7327,0,0,1-1.89-1.71Zm-26.42,21.51a7.0578,7.0578,0,0,1,6.14-6.97c2.7815-.3589,6.2717-.76,10.28-1.1289V180.1669a11.7294,11.7294,0,0,0,12.78,11.67c56.33-5.02,85,11.85,97.09,22.35a16.9093,16.9093,0,0,0,22.1,0c12.08-10.5,40.77-27.37,97.09-22.35a11.7294,11.7294,0,0,0,12.78-11.67V52.28c4.0048.3665,7.4932.7666,10.28,1.1274a7.0578,7.0578,0,0,1,6.14,6.97v140.13a7.03,7.03,0,0,1-7.47,7.01c-62.2-4.06-97.48,11.59-116.12,25.44a23.2257,23.2257,0,0,1-27.5,0c-16.6-12.33-46.4-26.09-96.67-26.09-6.17,0-12.65.2-19.45.65a7.03,7.03,0,0,1-7.47-7.01Zm-133.17,45.37h123.17v33.45h-144.7v-11.92A21.55,21.55,0,0,1,46.6666,105.7468Zm418.67,301.03H46.6666a21.5438,21.5438,0,0,1-21.53-21.53V349.0055H414.9893a5,5,0,0,0,0-10H25.1366V149.1969h144.7V186.985H132.79a5,5,0,0,0,0,10h37.047v3.5218a17.0192,17.0192,0,0,0,1.5583,7.071H132.79a5,5,0,0,0,0,10h54.8389a4.994,4.994,0,0,0,1.0774-.1233c58.6942-3.6873,91.5347,10.7373,108.7607,23.5323a32.89,32.89,0,0,0,39.42,0c17.3-12.85,50.34-27.35,109.51-23.49a17.0393,17.0393,0,0,0,18.12-16.99v-51.31h22.35V339.0055H437.3751a5,5,0,0,0,0,10h49.4915v36.2413A21.55,21.55,0,0,1,465.3366,406.7769Z"/><path d="M255.9977,361.2174a16.7237,16.7237,0,1,0,16.7241,16.7236A16.7427,16.7427,0,0,0,255.9977,361.2174Zm0,23.4473a6.7237,6.7237,0,1,1,6.7241-6.7237A6.7311,6.7311,0,0,1,255.9977,384.6647Z"/><path d="M347.3423,116.986a5.0051,5.0051,0,0,0,3.1563-1.1167c.7382-.5977,18.4648-14.5279,51.76-5.7735a5,5,0,0,0,2.543-9.6718c-38.5449-10.1285-59.7783,6.9951-60.6641,7.729a4.9954,4.9954,0,0,0,3.2051,8.833Z"/><path d="M347.3326,140.9767a4.9828,4.9828,0,0,0,3.1894-1.1514c.1777-.1474,18.1084-14.5952,51.7363-5.7539a5,5,0,0,0,2.543-9.6719c-38.5479-10.1323-59.7783,6.9947-60.6641,7.7286a5,5,0,0,0,3.1954,8.8486Z"/><path d="M404.8013,148.3746c-38.5449-10.13-59.7783,6.9952-60.6641,7.729a5,5,0,0,0,6.3614,7.7163c.7382-.5976,18.4648-14.5273,51.76-5.7734a5,5,0,0,0,2.543-9.6719Z"/><path d="M225.0894,106.5309a4.9964,4.9964,0,0,0,6.1074,3.5649c33.2568-8.7441,50.9815,5.145,51.7568,5.7715a5,5,0,0,0,6.3633-7.7143c-.8857-.7344-22.1181-17.8594-60.6631-7.729A5.0006,5.0006,0,0,0,225.0894,106.5309Z"/><path d="M228.6538,124.4a5,5,0,0,0,2.543,9.6719c33.2568-8.7436,50.9815,5.1445,51.7568,5.771a5,5,0,0,0,6.3633-7.7143C288.4312,131.3951,267.2027,114.2672,228.6538,124.4Z"/><path d="M228.6538,148.3746a5,5,0,0,0,2.543,9.6719c33.2568-8.7446,50.9815,5.145,51.7568,5.7715a5,5,0,0,0,6.3633-7.7144C288.4312,155.3693,267.1988,138.2448,228.6538,148.3746Z"/><path d="M81.9635,233.3888a32.14,32.14,0,1,0-32.14-32.14A32.1765,32.1765,0,0,0,81.9635,233.3888Zm0-54.28a22.14,22.14,0,1,1-22.14,22.14A22.1653,22.1653,0,0,1,81.9635,179.1085Z"/><path d="M262.4112,274.1012H132.79a5,5,0,0,0,0,10H262.4112a5,5,0,0,0,0-10Z"/><path d="M214.1905,296.6637H132.79a5,5,0,0,0,0,10h81.4009a5,5,0,0,0,0-10Z"/><path d="M262.4112,296.6637H238.08a5,5,0,0,0,0,10h24.3315a5,5,0,0,0,0-10Z"/><path d="M110.8629,254.9166l-8.5665,9.3054a32.2088,32.2088,0,1,0,6.688,7.5005L118.22,261.69a5,5,0,1,0-7.3574-6.7735Zm-6.7593,34.1753a22.1765,22.1765,0,1,1-8.5961-17.4956l-12.815,13.92-6.1656-6.3476a5,5,0,1,0-7.1728,6.9677l9.85,10.14a5,5,0,0,0,3.5864,1.5161c.022,0,.0445,0,.0669,0a5.0012,5.0012,0,0,0,3.6118-1.6128l15.4145-16.7438A22.005,22.005,0,0,1,104.1036,289.0919Z"/><path d="M330.47,276h-7.8271l-2.418-7.4438v0a7.3415,7.3415,0,0,0-13.9639,0L303.8429,276h-7.8272A7.341,7.341,0,0,0,291.7,289.2789l6.333,4.6006-2.419,7.4444a7.3408,7.3408,0,0,0,11.2969,8.2065l6.3321-4.6006,6.332,4.6a7.34,7.34,0,0,0,11.2959-8.206l-2.419-7.4444,6.3321-4.6006A7.3405,7.3405,0,0,0,330.47,276ZM323.36,287.69a7.3235,7.3235,0,0,0-2.665,8.2055l1.94,5.9693-5.0782-3.689a7.3216,7.3216,0,0,0-8.6289,0l-5.0771,3.6894,1.9385-5.97a7.3208,7.3208,0,0,0-2.6651-8.2065L298.045,284h6.2774a7.3231,7.3231,0,0,0,6.9814-5.0722l1.9385-5.97,1.9394,5.97A7.3234,7.3234,0,0,0,322.1632,284h6.2773Z"/><path d="M392.0128,276h-7.8272l-2.4179-7.4438v0a7.3415,7.3415,0,0,0-13.9639,0L365.3858,276h-7.8271a7.3406,7.3406,0,0,0-4.3154,13.2788l6.333,4.6016-2.419,7.4439a7.3373,7.3373,0,0,0,11.2949,8.207l6.333-4.6011,6.3321,4.6006a7.3408,7.3408,0,0,0,11.2969-8.2065l-2.419-7.4444,6.332-4.6006A7.3405,7.3405,0,0,0,392.0128,276Zm-7.1074,11.69a7.322,7.322,0,0,0-2.667,8.2065l1.9394,5.97-5.0781-3.69a7.322,7.322,0,0,0-8.6279,0l-5.0782,3.689,1.9385-5.9688a7.32,7.32,0,0,0-2.666-8.2065L359.588,284h6.2773a7.3232,7.3232,0,0,0,6.9815-5.0722l1.9384-5.97,1.94,5.97A7.3233,7.3233,0,0,0,383.7061,284h6.2774Z"/><path d="M442.66,309.53a7.3408,7.3408,0,0,0,11.2969-8.2065l-2.4189-7.4444,6.333-4.6011A7.3405,7.3405,0,0,0,453.5558,276h-7.8272l-2.4189-7.4443a7.3409,7.3409,0,0,0-13.9629,0L426.9288,276h-7.8271a7.3407,7.3407,0,0,0-4.3155,13.2788l6.333,4.6016L418.7,301.3239a7.3373,7.3373,0,0,0,11.2949,8.207l6.333-4.6011Zm-15.7236-7.6655,1.9385-5.9688a7.32,7.32,0,0,0-2.666-8.2065L421.131,284h6.2763a7.3234,7.3234,0,0,0,6.9824-5.0722l1.9385-5.9688,1.94,5.9693A7.3233,7.3233,0,0,0,445.2491,284h6.2774l-5.0782,3.69a7.3223,7.3223,0,0,0-2.667,8.2065l1.94,5.97-5.0781-3.69a7.3221,7.3221,0,0,0-8.628,0Z"/></g></svg>